<svg width="143" height="32" viewBox="0 0 143 32" fill="none" xmlns="http://www.w3.org/2000/svg">
<path d="M18.9141 15.2109C18.9141 17.4375 18.4141 19.3203 17.4141 20.8594C16.4141 22.3906 14.9766 23.4375 13.1016 24C12.2031 24.2656 11.2266 24.3984 10.1719 24.3984C9.125 24.3984 8.07422 24.2109 7.01953 23.8359C5.96484 23.4531 5.01953 22.918 4.18359 22.2305C3.35547 21.5352 2.69141 20.6484 2.19141 19.5703C1.69141 18.4922 1.44141 17.3047 1.44141 16.0078C1.44141 13.5859 2 11.6211 3.11719 10.1133C4.23438 8.60547 5.84375 7.57031 7.94531 7.00781C8.67188 6.8125 9.44531 6.71484 10.2656 6.71484C11.0938 6.71484 11.9258 6.82813 12.7617 7.05469C13.5977 7.28125 14.3828 7.62891 15.1172 8.09766C15.8594 8.56641 16.5156 9.125 17.0859 9.77344C18.3047 11.1641 18.9141 12.9766 18.9141 15.2109ZM6.79688 20.7422C7.28125 21.3672 7.84375 21.8477 8.48438 22.1836C9.125 22.5195 9.80078 22.6875 10.5117 22.6875C11.2227 22.6875 11.8516 22.5586 12.3984 22.3008C12.9531 22.043 13.4062 21.7031 13.7578 21.2812C14.1094 20.8516 14.4023 20.3438 14.6367 19.7578C15.0586 18.7031 15.2695 17.4531 15.2695 16.0078C15.2695 13.8125 14.75 12.0039 13.7109 10.582C12.6719 9.16016 11.3984 8.44922 9.89062 8.44922C9.29688 8.44922 8.71875 8.55859 8.15625 8.77734C7.60156 8.99609 7.12109 9.34766 6.71484 9.83203C6.31641 10.3086 6.01562 10.8594 5.8125 11.4844C5.42188 12.6406 5.22656 13.8398 5.22656 15.082C5.22656 16.3242 5.36719 17.4219 5.64844 18.375C5.92969 19.3281 6.3125 20.1172 6.79688 20.7422ZM36.5156 23.9531C36.0312 24.0625 35.6797 24.1172 35.4609 24.1172C35.25 24.1172 34.7227 24.0703 33.8789 23.9766C32.2617 22.8516 29.3672 18.3789 25.1953 10.5586C25.5547 16.2852 25.8516 20.3398 26.0859 22.7227L26.2031 23.9062C25.5078 24.1016 24.8242 24.1992 24.1523 24.1992C23.4883 24.1992 23.0352 24.1016 22.793 23.9062C22.9961 22.6719 23.0977 19.4805 23.0977 14.332C23.0977 11.6602 23.0703 10.1641 23.0156 9.84375C22.9688 9.52344 22.8984 9.29688 22.8047 9.16406C22.6641 8.97656 22.5 8.85547 22.3125 8.80078C22.125 8.74609 22.0195 8.71484 21.9961 8.70703C21.8789 8.55078 21.8203 8.29688 21.8203 7.94531C21.8203 7.58594 21.832 7.33594 21.8555 7.19531C22.2461 7.11719 22.7617 7.07812 23.4023 7.07812C24.043 7.07812 24.8945 7.11719 25.957 7.19531C26.3945 7.39063 26.9609 7.96094 27.6562 8.90625C28.3516 9.84375 29.0078 10.8438 29.625 11.9062C30.25 12.9688 31.0273 14.3086 31.957 15.9258C32.8945 17.5352 33.6484 18.793 34.2188 19.6992L33.6094 7.32422C34.2031 7.14453 34.7656 7.05469 35.2969 7.05469C35.8359 7.05469 36.2422 7.16797 36.5156 7.39453C36.4531 8.17578 36.4219 10.0977 36.4219 13.1602C36.4219 16.2227 36.4531 19.8203 36.5156 23.9531Z" fill="black"/>
<path d="M38.3477 20.7422C38.3477 19.8281 38.8711 19.3711 39.918 19.3711C40.4492 19.3711 40.9727 19.5078 41.4883 19.7812C41.4883 20.7734 41.6953 21.5352 42.1094 22.0664C42.5234 22.5898 43.2305 22.8516 44.2305 22.8516C45.2383 22.8516 45.9766 22.6602 46.4453 22.2773C46.9141 21.8945 47.1484 21.2852 47.1484 20.4492C47.1484 19.5586 46.8047 18.7969 46.1172 18.1641C45.5547 17.6406 44.9023 17.1875 44.1602 16.8047C43.418 16.4219 42.8203 16.1094 42.3672 15.8672C41.9141 15.6172 41.4805 15.3438 41.0664 15.0469C40.6602 14.75 40.2969 14.4297 39.9766 14.0859C39.2891 13.3438 38.9453 12.457 38.9453 11.4258C38.9453 10.3867 39.2148 9.51172 39.7539 8.80078C40.8086 7.41016 42.5234 6.71484 44.8984 6.71484C46.7266 6.71484 48.1211 7.09375 49.082 7.85156C49.957 8.54688 50.3945 9.32031 50.3945 10.1719C50.3945 10.5703 50.2578 10.8984 49.9844 11.1562C49.7188 11.4141 49.3047 11.543 48.7422 11.543C48.1797 11.543 47.6016 11.3984 47.0078 11.1094C47.0078 11.0547 47.0078 11.0039 47.0078 10.957C47.0078 10.0898 46.8125 9.39453 46.4219 8.87109C46.0391 8.34766 45.457 8.08594 44.6758 8.08594C43.8945 8.08594 43.2734 8.30469 42.8125 8.74219C42.3594 9.17969 42.1328 9.82422 42.1328 10.6758C42.1328 11.4102 42.4922 12.0547 43.2109 12.6094C43.7109 13 44.3672 13.3984 45.1797 13.8047C45.9922 14.2109 46.6328 14.543 47.1016 14.8008C47.5781 15.0508 48.0312 15.3359 48.4609 15.6562C48.8906 15.9688 49.2695 16.3125 49.5977 16.6875C50.3164 17.5 50.6758 18.4375 50.6758 19.5C50.6758 20.5547 50.3906 21.4492 49.8203 22.1836C49.25 22.9102 48.4883 23.4648 47.5352 23.8477C46.582 24.2227 45.6211 24.4102 44.6523 24.4102C43.6914 24.4102 42.8789 24.332 42.2148 24.1758C41.5508 24.0273 40.9883 23.8281 40.5273 23.5781C40.0664 23.3203 39.668 23.0312 39.332 22.7109C38.6758 22.0859 38.3477 21.4297 38.3477 20.7422ZM67.8555 9.79688C67.7695 10.3359 67.6133 10.7227 67.3867 10.957C67.168 11.1914 66.7812 11.3086 66.2266 11.3086C65.6719 11.3086 65.2148 11.1055 64.8555 10.6992V9.04688C63.9414 9.11719 62.8984 9.16406 61.7266 9.1875V19.3008C61.7266 21.0977 61.8242 22.6641 62.0195 24C61.4102 24.2031 60.6406 24.3047 59.7109 24.3047C58.7891 24.3047 58.1602 24.2031 57.8242 24L58.1289 20.2266V9.1875L54.8008 9.07031V10.6992C54.6992 10.8477 54.5117 10.9883 54.2383 11.1211C53.9648 11.2461 53.6211 11.3086 53.207 11.3086C52.793 11.3086 52.4727 11.1914 52.2461 10.957C52.0273 10.7227 51.8711 10.3398 51.7773 9.80859C51.6914 9.27734 51.6484 8.72656 51.6484 8.15625C51.6484 7.57813 51.7227 7.21094 51.8711 7.05469C53.8477 7.14844 56.3555 7.19531 59.3945 7.19531C62.4336 7.19531 65.2266 7.14844 67.7734 7.05469C67.9219 7.21094 67.9961 7.57031 67.9961 8.13281C67.9961 8.69531 67.9492 9.25 67.8555 9.79688ZM83.0078 21.9258C83.1875 22.1055 83.3516 22.2383 83.5 22.3242C83.6484 22.4023 83.7656 22.4453 83.8516 22.4531C83.9375 22.4609 84.0586 22.4648 84.2148 22.4648C84.3789 22.4648 84.6016 22.3906 84.8828 22.2422L85.2578 23.0859C84.7344 23.7344 84.0898 24.1914 83.3242 24.457C83.0039 24.5664 82.7461 24.6211 82.5508 24.6211C81.8086 24.6211 81.1836 24.4336 80.6758 24.0586C80.168 23.6836 79.7305 23.25 79.3633 22.7578C78.9961 22.2656 78.6484 21.7031 78.3203 21.0703C77.7109 19.9141 77.2422 18.7383 76.9141 17.543C76.2109 17.6367 75.4414 17.6836 74.6055 17.6836V20.2617C74.6055 20.8945 74.6523 21.9062 74.7461 23.2969L74.793 24C74.1289 24.2031 73.3359 24.3047 72.4141 24.3047C71.5 24.3047 70.918 24.2031 70.668 24C70.8945 22.3516 71.0078 21.0938 71.0078 20.2266V10.8281C71.0078 10.1328 70.9453 9.6875 70.8203 9.49219C70.6953 9.29688 70.6133 9.17188 70.5742 9.11719C70.5352 9.05469 70.4648 8.99609 70.3633 8.94141C70.2695 8.87891 70.2031 8.83594 70.1641 8.8125C70.0781 8.77344 69.9414 8.72266 69.7539 8.66016C69.6367 8.35547 69.5781 8.05469 69.5781 7.75781C69.5781 7.45312 69.582 7.26562 69.5898 7.19531C71.6836 6.875 73.9961 6.71484 76.5273 6.71484H77.1953C78.8594 6.74609 80.2812 7.15625 81.4609 7.94531C82.0391 8.33594 82.5 8.84375 82.8438 9.46875C83.1875 10.0938 83.3594 10.8008 83.3594 11.5898C83.3594 12.9023 83.043 14.0234 82.4102 14.9531C81.7852 15.875 80.75 16.5703 79.3047 17.0391C79.9141 17.8594 80.4258 18.5625 80.8398 19.1484C81.2539 19.7344 81.5898 20.1992 81.8477 20.543C82.1055 20.8867 82.3164 21.1562 82.4805 21.3516C82.6523 21.5469 82.8281 21.7383 83.0078 21.9258ZM79.8906 11.6133C79.8906 9.55078 78.6641 8.51953 76.2109 8.51953C75.75 8.51953 75.2148 8.55078 74.6055 8.61328V15.8672C77.3711 15.75 79.0234 15.0156 79.5625 13.6641C79.7812 13.0938 79.8906 12.4102 79.8906 11.6133ZM98.2773 19.9922C98.8477 19.9922 99.2539 20.2227 99.4961 20.6836C99.7383 21.1445 99.8594 21.8242 99.8594 22.7227C99.8594 23.6211 99.7969 24.125 99.6719 24.2344C96.9062 24.1172 94.3711 24.0508 92.0664 24.0352C89.7695 24.0195 88.2969 24.0078 87.6484 24C87.875 22.1328 87.9883 20.0703 87.9883 17.8125V10.2188C87.9883 9.53906 87.8828 9.10156 87.6719 8.90625C87.5781 8.82031 87.4414 8.74609 87.2617 8.68359C87.1445 8.52734 87.0859 8.27734 87.0859 7.93359C87.0859 7.58203 87.0977 7.33594 87.1211 7.19531C87.8164 7.1875 88.793 7.17969 90.0508 7.17188C91.3086 7.16406 92.2812 7.15625 92.9688 7.14844C94.8984 7.125 97.1328 7.0625 99.6719 6.96094C99.7969 7.07031 99.8594 7.57422 99.8594 8.47266C99.8594 9.37109 99.7383 10.0508 99.4961 10.5117C99.2539 10.9727 98.8008 11.2031 98.1367 11.2031C97.4727 11.2031 97.0078 10.9961 96.7422 10.582V9.16406C94.4609 9.05469 92.6445 9 91.293 9C91.4883 9.85938 91.5859 10.9141 91.5859 12.1641C91.5859 12.2578 91.5859 12.3477 91.5859 12.4336V14.6133L96.625 14.3555C96.75 14.5039 96.8125 14.8047 96.8125 15.2578C96.8125 15.7031 96.7734 16.1602 96.6953 16.6289C96.2656 16.6914 95.6523 16.7227 94.8555 16.7227C94.0664 16.7227 92.9766 16.6445 91.5859 16.4883V18.7734C91.5859 18.8594 91.5859 18.9492 91.5859 19.043C91.5859 20.3008 91.4883 21.3516 91.293 22.1953C92.6445 22.1953 94.4609 22.1406 96.7422 22.0312V20.6133C96.875 20.3555 97.1797 20.1719 97.6562 20.0625C97.8438 20.0156 98.0508 19.9922 98.2773 19.9922ZM114.133 7.85156C114.383 8.17188 114.555 8.49609 114.648 8.82422C114.75 9.15234 114.879 9.98828 115.035 11.332C115.199 12.668 115.367 14.2695 115.539 16.1367C115.711 18.0039 115.852 19.4492 115.961 20.4727C116.07 21.4961 116.242 22.6641 116.477 23.9766C115.914 24.1562 115.234 24.2461 114.438 24.2461C113.648 24.2461 113.094 24.1562 112.773 23.9766C112.445 23.0391 112.199 21.1836 112.035 18.4102L107.254 18.1875C106.527 22.0938 105.266 24.1602 103.469 24.3867C103.391 24.3945 103.316 24.3984 103.246 24.3984C102.699 24.3984 102.199 24.2344 101.746 23.9062C101.293 23.5703 101.066 23.168 101.066 22.6992C101.715 22.2617 102.312 21.6523 102.859 20.8711C103.414 20.0898 103.871 19.2539 104.23 18.3633C104.598 17.4648 104.914 16.5156 105.18 15.5156C105.664 13.6328 105.906 11.8828 105.906 10.2656C105.906 9.71094 105.84 9.30078 105.707 9.03516C105.574 8.76953 105.297 8.60547 104.875 8.54297C104.75 8.38672 104.688 8.10938 104.688 7.71094C104.688 7.3125 104.703 7.0625 104.734 6.96094C106.914 7.07812 109.746 7.15625 113.23 7.19531C113.59 7.30469 113.891 7.52344 114.133 7.85156ZM111.906 16.6289C111.867 15.8008 111.824 14.7578 111.777 13.5C111.73 12.2422 111.699 11.4648 111.684 11.168C111.668 10.8633 111.645 10.5781 111.613 10.3125C111.582 10.0391 111.551 9.84375 111.52 9.72656C111.488 9.60938 111.438 9.50391 111.367 9.41016C111.273 9.27734 111.035 9.1875 110.652 9.14062C110.277 9.09375 109.402 9.07031 108.027 9.07031C108.027 10.0938 107.969 11.3594 107.852 12.8672C107.742 14.375 107.633 15.5586 107.523 16.418H107.969C109.312 16.418 110.625 16.4883 111.906 16.6289ZM138.895 9.91406C139.473 13.7656 139.902 16.3203 140.184 17.5781C140.465 18.8281 140.742 20.0195 141.016 21.1523C141.289 22.2852 141.508 23.2266 141.672 23.9766C141.117 24.1562 140.449 24.2461 139.668 24.2461C138.895 24.2461 138.348 24.1562 138.027 23.9766C137.418 22.8203 136.691 19.1875 135.848 13.0781C135.707 12.0625 135.625 11.4805 135.602 11.332C134.156 14.7539 133.18 17.8125 132.672 20.5078C132.484 21.4922 132.391 22.1836 132.391 22.582C132.391 22.9805 132.391 23.2148 132.391 23.2852C131.906 23.6289 131.27 23.8008 130.48 23.8008C129.613 23.8008 129.082 23.6289 128.887 23.2852C128.77 22.9492 128.488 22.0859 128.043 20.6953C126.848 16.9453 125.785 13.7812 124.855 11.2031L124.809 11.8828C124.691 14.3906 124.539 16.1602 124.352 17.1914C124.164 18.2227 123.992 19.0703 123.836 19.7344C123.68 20.3906 123.492 20.9766 123.273 21.4922C123.062 22 122.82 22.4688 122.547 22.8984C121.922 23.8984 121.145 24.3984 120.215 24.3984C119.441 24.3984 118.824 24.1172 118.363 23.5547C118.145 23.2891 118.035 23.0039 118.035 22.6992C118.699 22.2539 119.309 21.6445 119.863 20.8711C120.418 20.0977 120.871 19.2852 121.223 18.4336C121.574 17.582 121.879 16.6719 122.137 15.7031C122.676 13.6875 122.945 11.9414 122.945 10.4648C122.945 9.98047 122.91 9.66797 122.84 9.52734C122.77 9.37891 122.719 9.26953 122.688 9.19922C122.656 9.12109 122.594 9.05078 122.5 8.98828C122.406 8.92578 122.344 8.88672 122.312 8.87109C122.289 8.85547 122.219 8.82812 122.102 8.78906C121.984 8.74219 121.918 8.71484 121.902 8.70703C121.777 8.55078 121.715 8.29297 121.715 7.93359C121.715 7.56641 121.73 7.32031 121.762 7.19531C122.152 7.11719 122.676 7.07812 123.332 7.07812C123.996 7.07812 124.863 7.11719 125.934 7.19531C126.309 7.27344 127.508 9.91016 129.531 15.1055C130.297 17.0742 130.777 18.2461 130.973 18.6211C131.395 17.1836 132.746 13.3828 135.027 7.21875C135.809 7.16406 136.32 7.13672 136.562 7.13672C136.812 7.13672 137.086 7.1875 137.383 7.28906C137.688 7.38281 137.988 7.66797 138.285 8.14453C138.582 8.62109 138.785 9.21094 138.895 9.91406Z" fill="black"/>
</svg>
